<svg version="1.1" id="Layer_1" xmlns="http://www.w3.org/2000/svg" xmlns:xlink="http://www.w3.org/1999/xlink" x="0px" y="0px"
	 width="100%" viewBox="0 0 200 200" enable-background="new 0 0 200 200" xml:space="preserve">
<path fill="#CFFE26" opacity="1.000000" stroke="none" 
	d="
M94.000000,201.000000 
	C62.666668,201.000000 31.833338,201.000000 1.000004,201.000000 
	C1.000003,134.333344 1.000003,67.666679 1.000001,1.000013 
	C67.666656,1.000009 134.333313,1.000009 200.999969,1.000004 
	C200.999985,67.666649 200.999985,134.333298 201.000000,200.999969 
	C165.500000,201.000000 130.000000,201.000000 94.000000,201.000000 
M87.307976,80.256042 
	C87.571602,80.507286 87.835220,80.758537 88.591965,81.275665 
	C88.777344,81.795876 88.962730,82.316086 88.773552,83.238602 
	C89.203461,83.820869 89.633377,84.403145 90.000870,84.980827 
	C90.000870,84.980827 90.034874,84.928284 89.989388,85.673897 
	C90.523293,86.646706 91.057205,87.619522 91.361115,88.625160 
	C91.361115,88.625160 91.362892,88.392838 91.739891,89.121452 
	C95.490494,89.023842 99.241096,88.926231 102.998482,89.000900 
	C102.998482,89.000900 102.826202,89.007622 103.377960,88.435326 
	C103.920860,85.749817 105.390091,82.880974 101.681129,80.893654 
	C101.681129,80.893654 101.731941,80.654228 101.837975,79.878098 
	C101.202118,78.924728 100.566254,77.971359 99.995163,77.018143 
	C99.995163,77.018143 99.971466,77.078423 99.866371,76.457947 
	C99.461105,76.009758 99.055832,75.561562 98.107933,74.762886 
	C88.111351,62.847179 75.165459,60.659359 61.061066,64.530296 
	C47.154461,68.346947 39.487450,78.480774 37.214199,92.371475 
	C36.291061,98.012276 36.312897,104.053802 37.218895,109.702202 
	C40.053562,127.374786 52.263077,138.973923 70.459335,138.461197 
	C75.444427,138.320740 80.454773,138.173050 85.420799,138.510483 
	C90.513603,138.856537 92.541466,136.830215 91.880310,131.867599 
	C91.315811,127.630394 93.430679,126.443977 97.386032,126.302528 
	C99.536201,126.225639 101.633560,124.672058 104.341705,123.265625 
	C104.668289,119.766747 107.054779,115.946609 102.917938,113.137596 
	C102.917938,113.137596 102.937248,113.290436 102.375717,112.689766 
	C98.947151,112.876732 95.518585,113.063698 92.100403,113.148262 
	C92.100403,113.148262 92.200912,113.170448 91.486694,113.285484 
	C90.668030,115.594261 89.849373,117.903046 88.927666,120.876778 
	C86.451195,125.293968 82.465775,127.330322 77.638031,128.066010 
	C62.486244,130.374939 52.301147,123.417694 49.727097,108.294128 
	C47.781033,96.860252 48.626305,85.896812 59.209270,77.660606 
	C59.474056,77.416672 59.738842,77.172745 59.988239,76.994186 
	C59.988239,76.994186 59.926163,76.968552 60.766041,77.000626 
	C67.916702,76.588837 75.067368,76.177055 82.090805,75.864525 
	C82.090805,75.864525 82.177406,75.728371 82.473137,76.267136 
	C83.028008,76.485596 83.582886,76.704048 84.043312,76.949272 
	C84.043312,76.949272 84.020798,76.853722 84.330505,77.302788 
	C84.645149,77.474365 84.959785,77.645943 85.172592,77.828598 
	C85.172592,77.828598 85.177757,77.726295 85.409218,78.226036 
	C85.715935,78.416481 86.022652,78.606918 86.200806,78.807243 
	C86.200806,78.807243 86.209503,78.678589 86.395943,79.209831 
	C86.688454,79.435158 86.980965,79.660484 87.120071,79.881058 
	C87.120071,79.881058 87.136047,79.728424 87.307976,80.256042 
M130.502853,138.150650 
	C137.086594,138.003906 143.842789,138.736069 150.210144,137.486618 
	C158.063171,135.945618 163.400299,130.538803 164.993866,122.349396 
	C166.654144,113.817291 165.704605,105.735428 157.688751,100.703896 
	C153.939362,98.350403 149.291245,97.299713 144.932236,96.081612 
	C140.307419,94.789223 135.444305,94.315941 130.865677,92.901108 
	C126.113243,91.432571 123.468063,88.000175 123.883049,82.708603 
	C124.277313,77.681252 127.200851,75.013588 131.877960,73.781761 
	C141.910110,71.139565 148.003799,74.596268 152.957565,86.113678 
	C155.113419,86.113678 157.429413,86.146393 159.743713,86.098183 
	C160.721436,86.077820 161.695618,85.887077 162.795212,85.759407 
	C162.999664,84.682861 163.292526,83.728111 163.347076,82.759941 
	C163.754196,75.532349 163.554016,75.130615 156.350616,74.934563 
	C152.019058,74.816673 151.429932,72.370712 151.731354,69.010666 
	C152.115341,64.730675 150.287735,62.880653 145.943390,63.093060 
	C141.624039,63.304241 137.280197,63.002815 132.959442,63.198669 
	C120.062737,63.783253 111.744270,72.000000 111.551720,84.173782 
	C111.381744,94.920898 117.397758,102.077423 129.313828,104.935242 
	C134.642868,106.213303 140.118149,106.884445 145.442230,108.179672 
	C151.074005,109.549744 153.353409,112.500511 153.350739,117.539200 
	C153.348007,122.686203 150.645721,126.297623 145.608719,127.885857 
	C134.237030,131.471481 125.967522,127.077187 122.085251,115.633354 
	C121.709908,114.526955 119.876900,113.173080 118.754532,113.203125 
	C115.561218,113.288651 112.381294,114.008156 109.217720,114.594719 
	C109.086906,114.618965 108.988991,115.882118 109.187157,116.461578 
	C112.713631,126.773270 117.442665,135.970078 130.502853,138.150650 
z"/>
<path fill="#060902" opacity="1.000000" stroke="none" 
	d="
M130.086487,138.087952 
	C117.442665,135.970078 112.713631,126.773270 109.187157,116.461578 
	C108.988991,115.882118 109.086906,114.618965 109.217720,114.594719 
	C112.381294,114.008156 115.561218,113.288651 118.754532,113.203125 
	C119.876900,113.173080 121.709908,114.526955 122.085251,115.633354 
	C125.967522,127.077187 134.237030,131.471481 145.608719,127.885857 
	C150.645721,126.297623 153.348007,122.686203 153.350739,117.539200 
	C153.353409,112.500511 151.074005,109.549744 145.442230,108.179672 
	C140.118149,106.884445 134.642868,106.213303 129.313828,104.935242 
	C117.397758,102.077423 111.381744,94.920898 111.551720,84.173782 
	C111.744270,72.000000 120.062737,63.783253 132.959442,63.198669 
	C137.280197,63.002815 141.624039,63.304241 145.943390,63.093060 
	C150.287735,62.880653 152.115341,64.730675 151.731354,69.010666 
	C151.429932,72.370712 152.019058,74.816673 156.350616,74.934563 
	C163.554016,75.130615 163.754196,75.532349 163.347076,82.759941 
	C163.292526,83.728111 162.999664,84.682861 162.795212,85.759407 
	C161.695618,85.887077 160.721436,86.077820 159.743713,86.098183 
	C157.429413,86.146393 155.113419,86.113678 152.957565,86.113678 
	C148.003799,74.596268 141.910110,71.139565 131.877960,73.781761 
	C127.200851,75.013588 124.277313,77.681252 123.883049,82.708603 
	C123.468063,88.000175 126.113243,91.432571 130.865677,92.901108 
	C135.444305,94.315941 140.307419,94.789223 144.932236,96.081612 
	C149.291245,97.299713 153.939362,98.350403 157.688751,100.703896 
	C165.704605,105.735428 166.654144,113.817291 164.993866,122.349396 
	C163.400299,130.538803 158.063171,135.945618 150.210144,137.486618 
	C143.842789,138.736069 137.086594,138.003906 130.086487,138.087952 
z"/>
<path fill="#050901" opacity="1.000000" stroke="none" 
	d="
M101.731941,80.654228 
	C101.731941,80.654228 101.681129,80.893654 101.814423,81.347290 
	C102.240547,84.203156 102.533371,86.605392 102.826202,89.007622 
	C102.826202,89.007622 102.998482,89.000900 102.537285,88.964653 
	C98.505020,88.749886 94.933960,88.571365 91.362892,88.392838 
	C91.362892,88.392838 91.361115,88.625160 91.367294,88.283356 
	C90.927269,86.937126 90.481071,85.932709 90.034874,84.928284 
	C90.034874,84.928284 90.000870,84.980827 90.042046,84.670364 
	C89.771523,83.852036 89.459816,83.344170 89.148117,82.836296 
	C88.962730,82.316086 88.777344,81.795876 88.292587,80.858871 
	C87.707489,80.204185 87.421768,79.966309 87.136047,79.728424 
	C87.136047,79.728424 87.120071,79.881058 87.119080,79.604996 
	C86.815224,79.112160 86.512367,78.895370 86.209503,78.678589 
	C86.209503,78.678589 86.200806,78.807243 86.160164,78.542213 
	C85.805603,78.093552 85.491676,77.909920 85.177757,77.726295 
	C85.177757,77.726295 85.172592,77.828598 85.103745,77.565552 
	C84.696854,77.152908 84.358826,77.003319 84.020798,76.853729 
	C84.020798,76.853722 84.043312,76.949272 83.949165,76.664421 
	C83.295815,76.162506 82.736610,75.945442 82.177406,75.728371 
	C82.177406,75.728371 82.090805,75.864525 81.886673,75.532501 
	C74.226501,73.280693 66.840012,72.216660 59.926163,76.968552 
	C59.926163,76.968552 59.988239,76.994186 59.709255,76.998779 
	C59.184654,77.279427 58.939037,77.555473 58.693417,77.831512 
	C48.626305,85.896812 47.781033,96.860252 49.727097,108.294128 
	C52.301147,123.417694 62.486244,130.374939 77.638031,128.066010 
	C82.465775,127.330322 86.451195,125.293968 89.270020,120.328903 
	C90.475220,117.577499 91.338066,115.373970 92.200912,113.170448 
	C92.200912,113.170448 92.100403,113.148262 92.544266,113.152451 
	C96.304504,113.201233 99.620880,113.245834 102.937248,113.290436 
	C102.937248,113.290436 102.917938,113.137596 102.978394,113.529556 
	C103.277489,117.209190 103.516113,120.496872 103.754745,123.784546 
	C101.633560,124.672058 99.536201,126.225639 97.386032,126.302528 
	C93.430679,126.443977 91.315811,127.630394 91.880310,131.867599 
	C92.541466,136.830215 90.513603,138.856537 85.420799,138.510483 
	C80.454773,138.173050 75.444427,138.320740 70.459335,138.461197 
	C52.263077,138.973923 40.053562,127.374786 37.218895,109.702202 
	C36.312897,104.053802 36.291061,98.012276 37.214199,92.371475 
	C39.487450,78.480774 47.154461,68.346947 61.061066,64.530296 
	C75.165459,60.659359 88.111351,62.847179 98.466080,75.233803 
	C99.206642,76.162621 99.589058,76.620522 99.971466,77.078423 
	C99.971466,77.078423 99.995163,77.018143 100.009811,77.361015 
	C100.593620,78.687332 101.162781,79.670784 101.731941,80.654228 
z"/>
<path fill="#C7EA47" opacity="1.000000" stroke="none" 
	d="
M60.346100,76.984589 
	C66.840012,72.216660 74.226501,73.280693 81.950287,75.482880 
	C75.067368,76.177055 67.916702,76.588837 60.346100,76.984589 
z"/>
<path fill="#CCF244" opacity="1.000000" stroke="none" 
	d="
M104.048225,123.525085 
	C103.516113,120.496872 103.277489,117.209190 102.902832,113.544464 
	C107.054779,115.946609 104.668289,119.766747 104.048225,123.525085 
z"/>
<path fill="#C7EA47" opacity="1.000000" stroke="none" 
	d="
M91.551392,88.757141 
	C94.933960,88.571365 98.505020,88.749886 102.533890,88.878510 
	C99.241096,88.926231 95.490494,89.023842 91.551392,88.757141 
z"/>
<path fill="#C7EA47" opacity="1.000000" stroke="none" 
	d="
M103.102081,88.721474 
	C102.533371,86.605392 102.240547,84.203156 101.926338,81.396805 
	C105.390091,82.880974 103.920860,85.749817 103.102081,88.721474 
z"/>
<path fill="#CCF244" opacity="1.000000" stroke="none" 
	d="
M102.656479,112.990097 
	C99.620880,113.245834 96.304504,113.201233 92.539078,113.203644 
	C95.518585,113.063698 98.947151,112.876732 102.656479,112.990097 
z"/>
<path fill="#CCF244" opacity="1.000000" stroke="none" 
	d="
M91.843803,113.227966 
	C91.338066,115.373970 90.475220,117.577499 89.321541,119.996429 
	C89.849373,117.903046 90.668030,115.594261 91.843803,113.227966 
z"/>
<path fill="#C7EA47" opacity="1.000000" stroke="none" 
	d="
M101.784958,80.266159 
	C101.162781,79.670784 100.593620,78.687332 99.977432,77.360939 
	C100.566254,77.971359 101.202118,78.924728 101.784958,80.266159 
z"/>
<path fill="#C7EA47" opacity="1.000000" stroke="none" 
	d="
M88.960831,83.037445 
	C89.459816,83.344170 89.771523,83.852036 90.073257,84.672661 
	C89.633377,84.403145 89.203461,83.820869 88.960831,83.037445 
z"/>
<path fill="#C7EA47" opacity="1.000000" stroke="none" 
	d="
M90.012131,85.301086 
	C90.481071,85.932709 90.927269,86.937126 91.482285,88.266937 
	C91.057205,87.619522 90.523293,86.646706 90.012131,85.301086 
z"/>
<path fill="#C7EA47" opacity="1.000000" stroke="none" 
	d="
M82.325272,75.997757 
	C82.736610,75.945442 83.295815,76.162506 83.996384,76.651039 
	C83.582886,76.704048 83.028008,76.485596 82.325272,75.997757 
z"/>
<path fill="#C7EA47" opacity="1.000000" stroke="none" 
	d="
M99.918915,76.768188 
	C99.589058,76.620522 99.206642,76.162621 98.737396,75.409042 
	C99.055832,75.561562 99.461105,76.009758 99.918915,76.768188 
z"/>
<path fill="#C7EA47" opacity="1.000000" stroke="none" 
	d="
M58.951344,77.746063 
	C58.939037,77.555473 59.184654,77.279427 59.716949,76.966095 
	C59.738842,77.172745 59.474056,77.416672 58.951344,77.746063 
z"/>
<path fill="#C7EA47" opacity="1.000000" stroke="none" 
	d="
M84.175652,77.078262 
	C84.358826,77.003319 84.696854,77.152908 85.154655,77.560013 
	C84.959785,77.645943 84.645149,77.474365 84.175652,77.078262 
z"/>
<path fill="#C7EA47" opacity="1.000000" stroke="none" 
	d="
M85.293488,77.976166 
	C85.491676,77.909920 85.805603,78.093552 86.224442,78.537277 
	C86.022652,78.606918 85.715935,78.416481 85.293488,77.976166 
z"/>
<path fill="#C7EA47" opacity="1.000000" stroke="none" 
	d="
M86.302719,78.944214 
	C86.512367,78.895370 86.815224,79.112160 87.195778,79.607376 
	C86.980965,79.660484 86.688454,79.435158 86.302719,78.944214 
z"/>
<path fill="#C7EA47" opacity="1.000000" stroke="none" 
	d="
M87.222015,79.992233 
	C87.421768,79.966309 87.707489,80.204185 88.046028,80.725922 
	C87.835220,80.758537 87.571602,80.507286 87.222015,79.992233 
z"/>
</svg>